<?xml version="1.0" standalone="no"?>
<!DOCTYPE svg PUBLIC "-//W3C//DTD SVG 20010904//EN"
 "http://www.w3.org/TR/2001/REC-SVG-20010904/DTD/svg10.dtd">
<svg version="1.0" xmlns="http://www.w3.org/2000/svg"
 width="956.000000pt" height="126.000000pt" viewBox="0 0 956.000000 126.000000"
 preserveAspectRatio="xMidYMid meet">
<metadata>
Created by potrace 1.16, written by Peter Selinger 2001-2019
</metadata>
<g transform="translate(0.000000,126.000000) scale(0.100000,-0.100000)"
fill="#000000" stroke="none">
<path d="M5112 1036 c-204 -217 -212 -226 -212 -265 l0 -41 84 0 83 0 5 -222
c5 -198 8 -229 27 -280 41 -107 128 -171 259 -189 l66 -10 108 108 c103 103
108 110 108 149 l0 42 -90 4 c-135 5 -134 3 -138 223 l-3 175 33 0 c29 0 45
12 116 83 80 80 82 84 82 130 l0 47 -120 0 -120 0 0 135 0 135 -38 0 c-38 0
-46 -7 -250 -224z"/>
<path d="M1479 1010 c-260 -41 -425 -259 -406 -538 19 -282 210 -464 487 -466
102 0 170 16 246 60 50 30 50 30 58 -1 l6 -25 135 0 135 0 0 475 0 475 -129 0
-129 0 -12 -35 -11 -34 -41 25 c-90 57 -223 82 -339 64z m217 -309 c22 -10 54
-35 72 -56 113 -138 15 -345 -164 -345 -49 0 -132 47 -162 92 -37 57 -43 149
-12 213 48 98 166 141 266 96z"/>
<path d="M4148 1010 c-177 -30 -308 -131 -375 -291 -26 -59 -28 -74 -28 -204
0 -119 3 -148 21 -197 69 -180 219 -291 424 -313 102 -10 251 28 311 82 15 12
18 11 27 -16 l11 -31 130 0 131 0 0 475 0 475 -125 0 -125 0 -15 -36 c-14 -34
-16 -36 -33 -21 -31 28 -125 66 -192 76 -73 12 -94 12 -162 1z m53 -326 c129
-64 132 -50 -35 -139 l-109 -58 6 59 c3 32 9 89 13 127 3 37 8 67 10 67 3 0
54 -25 115 -56z m131 -216 c3 -81 1 -128 -5 -128 -5 0 -66 30 -134 66 l-125
66 123 68 c68 38 127 65 130 62 4 -4 9 -64 11 -134z m141 65 l38 -24 -72 -79
c-40 -44 -76 -80 -80 -80 -5 0 -9 31 -9 69 0 37 -3 97 -7 131 l-6 64 49 -29
c27 -15 66 -39 87 -52z m-282 -145 c65 -34 116 -64 114 -66 -6 -6 -176 -41
-201 -42 -18 0 -23 7 -28 48 -4 26 -9 64 -12 85 -3 20 -2 37 2 37 4 0 60 -28
125 -62z"/>
<path d="M6135 1009 c-204 -34 -367 -193 -404 -394 -16 -86 -14 -152 9 -241
59 -229 248 -368 500 -368 227 1 406 116 483 311 l17 43 -168 0 -168 0 -29
-30 c-34 -36 -84 -54 -147 -52 -76 1 -132 41 -163 115 l-15 37 349 0 350 0 7
45 c3 25 1 80 -5 122 -42 284 -310 463 -616 412z m200 -282 c36 -20 85 -77 85
-98 0 -5 -81 -9 -180 -9 -198 0 -193 -2 -148 63 47 66 165 88 243 44z"/>
<path d="M7251 1010 c-111 -17 -218 -74 -289 -155 -133 -151 -159 -403 -62
-595 115 -228 417 -323 654 -205 70 35 85 34 86 -2 0 -10 34 -13 135 -13 l135
0 0 475 0 475 -125 0 -125 0 -17 -34 -16 -34 -37 24 c-83 55 -225 82 -339 64z
m214 -309 c127 -57 164 -223 73 -327 -149 -170 -420 -8 -346 207 18 54 48 87
102 114 59 30 115 32 171 6z"/>
<path d="M430 993 c-41 -15 -78 -36 -136 -78 -21 -16 -23 -15 -39 29 l-18 46
-118 0 -119 0 0 -480 0 -480 165 0 165 0 0 268 c0 301 8 351 60 395 39 34 97
43 144 23 63 -26 66 -44 66 -386 l0 -300 170 0 170 0 0 320 c0 196 -4 339 -11
372 -27 126 -108 228 -215 267 -68 26 -215 28 -284 4z"/>
<path d="M8524 989 c-29 -11 -72 -37 -96 -59 l-45 -39 -20 50 -21 49 -121 0
-121 0 0 -480 0 -480 170 0 170 0 0 293 c0 265 2 296 19 334 45 99 173 96 201
-5 6 -21 10 -160 10 -329 l0 -293 159 0 159 0 4 298 c3 324 5 335 64 381 29
23 83 28 115 11 46 -25 49 -50 49 -380 l0 -310 170 0 170 0 0 325 c0 198 -4
345 -11 377 -25 121 -92 209 -191 253 -55 25 -69 27 -157 23 -106 -5 -165 -27
-236 -89 l-36 -32 -37 36 c-63 61 -133 87 -232 86 -60 0 -100 -6 -136 -20z"/>
<path d="M2330 510 l0 -480 170 0 169 0 3 290 3 290 33 32 c32 33 33 33 142
36 l110 4 0 154 0 154 -83 0 c-102 0 -172 -20 -231 -65 l-44 -33 -21 49 -22
49 -114 0 -115 0 0 -480z"/>
<path d="M3070 510 l0 -480 164 0 165 0 3 278 c3 242 5 281 21 309 27 50 62
63 172 63 l95 0 0 156 0 156 -97 -4 c-106 -4 -175 -27 -224 -74 l-25 -24 -24
50 -23 50 -114 0 -113 0 0 -480z"/>
</g>
</svg>
